<svg>
	<symbol id="search" viewBox="0 0 24 24" xmlns="http://www.w3.org/2000/svg">
    <path fill-rule="evenodd" clip-rule="evenodd" stroke-linejoin="round" stroke-widdth="1.2" d="M10 17C6.68629 17 4 14.3137 4 11C4 7.68629 6.68629 5 10 5C13.3137 5 16 7.68629 16 11C16 14.3137 13.3137 17 10 17Z"/>
    <path d="M14.5 15.5L19 20" stroke-linecap="round" stroke-linejoin="round" stroke-widdth="1.2"/>
  </symbol>
  <symbol id="user" viewBox="0 0 20 20" xmlns="http://www.w3.org/2000/svg">
    <path fill="currentColor" d="M5.00873 11C3.90315 11 3 11.8869 3 13C3 14.6912 3.83281 15.9663 5.13499 16.7966C6.41697 17.614 8.14526 18 10 18C11.8547 18 13.583 17.614 14.865 16.7966C16.1672 15.9663 17 14.6912 17 13C17 11.8956 16.1045 11 15 11L5.00873 11Z"/>
    <circle fill="currentColor" cx="10" cy="6" r="3"/>
  </symbol>
  <symbol id="mail" viewBox="0 0 20 20" xmlns="http://www.w3.org/2000/svg">
    <path fill="currentColor" d="M18 7.373V14.5C18 15.8807 16.8807 17 15.5 17H4.49996C3.11925 17 1.99988 15.8807 1.99988 14.5V7.373L9.74645 11.931C9.90292 12.023 10.097 12.023 10.2535 11.931L18 7.373ZM15.5 4C16.787 4 17.8469 4.9726 17.9848 6.22293L9.99996 10.9199L2.01514 6.22293C2.15299 4.9726 3.21289 4 4.49996 4H15.5Z"/>
  </symbol>
  <symbol id="tel" viewBox="0 0 20 20" xmlns="http://www.w3.org/2000/svg">
    <path fill="currentColor" d="M16.9774 13.5816L16.3417 16.3377C16.2524 16.7274 15.91 17 15.5089 17C8.61065 16.9994 3 11.3888 3 4.49029C3 4.08945 3.27258 3.74658 3.66223 3.65772L6.41834 3.02201C6.81973 2.92899 7.22986 3.13734 7.39665 3.51745L8.66862 6.4841C8.81731 6.83353 8.71702 7.24066 8.42309 7.48073L6.95097 8.66274C7.88007 10.5554 9.41889 12.0942 11.3121 13.0238L12.5173 11.5528C12.7549 11.2581 13.1651 11.1561 13.5145 11.3074L16.4812 12.5791C16.838 12.7668 17.0704 13.1824 16.9774 13.5816Z"/>
  </symbol>
  <symbol id="arrow" viewBox="0 0 14 13" xmlns="http://www.w3.org/2000/svg">
    <path fill="currentColor" d="M7.03072 12.473L5.71396 11.169L9.65785 7.22514H0.0761719V5.32031H9.65785L5.71396 1.38281L7.03072 0.0724429L13.231 6.27273L7.03072 12.473Z"/>
  </symbol>
  <symbol id="telegram" viewBox="0 0 48 48" xmlns="http://www.w3.org/2000/svg">
    <path fill="currentColor" fill-rule="evenodd" clip-rule="evenodd" d="M43 24C43 34.4934 34.4934 43 24 43C13.5066 43 5 34.4934 5 24C5 13.5066 13.5066 5 24 5C34.4934 5 43 13.5066 43 24ZM24.6808 19.0266C22.8328 19.7952 19.1393 21.3862 13.6004 23.7994C12.701 24.157 12.2298 24.5069 12.1869 24.8491C12.1144 25.4273 12.8386 25.655 13.8246 25.965C13.9587 26.0072 14.0977 26.0509 14.2402 26.0972C15.2103 26.4126 16.5152 26.7815 17.1936 26.7962C17.809 26.8094 18.4958 26.5557 19.2541 26.0351C24.4293 22.5417 27.1007 20.776 27.2684 20.7379C27.3867 20.711 27.5507 20.6773 27.6618 20.776C27.7729 20.8748 27.762 21.0618 27.7502 21.1119C27.6785 21.4177 24.8361 24.0603 23.3652 25.4278C22.9066 25.8541 22.5814 26.1565 22.5149 26.2255C22.3659 26.3802 22.2141 26.5266 22.0682 26.6672C21.167 27.536 20.4911 28.1876 22.1056 29.2515C22.8815 29.7628 23.5024 30.1856 24.1218 30.6074C24.7982 31.0681 25.4729 31.5275 26.3458 32.0997C26.5682 32.2455 26.7806 32.397 26.9875 32.5444C27.7747 33.1057 28.4819 33.6098 29.3557 33.5294C29.8634 33.4827 30.3878 33.0053 30.6542 31.5815C31.2836 28.2166 32.5208 20.9258 32.8068 17.9215C32.8318 17.6582 32.8003 17.3214 32.775 17.1735C32.7497 17.0256 32.6968 16.8149 32.5046 16.659C32.2769 16.4742 31.9255 16.4353 31.7683 16.4381C31.0537 16.4506 29.9573 16.8319 24.6808 19.0266Z"/>
  </symbol>
  <symbol id="vk" viewBox="0 0 48 48" xmlns="http://www.w3.org/2000/svg">
    <path fill="currentColor" fill-rule="evenodd" clip-rule="evenodd" d="M8.5306 8.5306C6 11.0612 6 15.1341 6 23.28V24.72C6 32.8659 6 36.9388 8.5306 39.4694C11.0612 42 15.1341 42 23.28 42H24.72C32.8659 42 36.9388 42 39.4694 39.4694C42 36.9388 42 32.8659 42 24.72V23.28C42 15.1341 42 11.0612 39.4694 8.5306C36.9388 6 32.8659 6 24.72 6H23.28C15.1341 6 11.0612 6 8.5306 8.5306ZM12.0751 16.9501C12.27 26.3101 16.95 31.935 25.155 31.935H25.6201V26.58C28.6351 26.88 30.915 29.0851 31.8299 31.935H36.0901C34.9201 27.6751 31.8449 25.32 29.9249 24.42C31.8449 23.3101 34.5449 20.6101 35.1899 16.9501H31.3198C30.4798 19.9201 27.9901 22.62 25.6201 22.875V16.9501H21.75V27.33C19.35 26.7301 16.32 23.8201 16.185 16.9501H12.0751Z"/>
  </symbol>
  <symbol id="grand-class" viewBox="0 0 48 48" xmlns="http://www.w3.org/2000/svg">
    <path fill="currentColor" d="M14.6283 18.083L6.03835 23.1881L6 13.093L14.6283 18.083Z"/>
    <path fill="currentColor" d="M33.5722 7.02837L24.9056 12.0183V2L33.5722 7.02837Z"/>
    <path fill="currentColor" d="M23.9086 12.5173L15.2419 17.5457V7.52734L23.9086 12.5173Z"/>
    <path fill="currentColor" d="M23.9086 35.241L15.2419 40.231V30.1357L23.9086 35.241Z"/>
    <path fill="currentColor" d="M14.6283 29.2912L6.03835 34.358L6 24.2629L14.6283 29.2912Z"/>
    <path fill="currentColor" d="M42.6608 24.0325L34.0709 29.1376V19.0042L42.6608 24.0325Z"/>
    <path fill="currentColor" d="M33.5722 40.7299L24.9056 45.7581V35.6631L33.5722 40.7299Z"/>
    <path fill="currentColor" d="M42.7375 35.3177L34.1091 40.346V30.251L42.7375 35.3177Z"/>
    <path fill="currentColor" d="M6 23.7256L14.6283 28.7541V18.6973L6 23.7256Z"/>
    <path fill="currentColor" d="M24.7905 24.0325L33.4188 29.0993V19.0042L24.7905 24.0325Z"/>
    <path fill="currentColor" d="M34.2625 29.6754L42.929 34.7421V24.647L34.2625 29.6754Z"/>
    <path fill="currentColor" d="M15.6637 7.06668L24.2537 12.095L24.292 2.03833L15.6637 7.06668Z"/>
    <path fill="currentColor" d="M15.6637 40.7299L24.2537 45.7581L24.292 35.6631L15.6637 40.7299Z"/>
    <path fill="currentColor" d="M6 34.8957L14.6283 39.9239V29.8672L6 34.8957Z"/>
    <path fill="currentColor" d="M24.9823 35.241L33.6107 40.231V30.1357L24.9823 35.241Z"/>
    <path fill="currentColor" d="M6 12.5173L14.6283 17.5457V7.52734L6 12.5173Z"/>
  </symbol>
  <symbol id="dzen" viewBox="0 0 48 48" xmlns="http://www.w3.org/2000/svg">
    <path fill="currentColor" fill-rule="evenodd" clip-rule="evenodd" d="M27.4714 27.4714C24.6429 30.39 24.45 34.0286 24.1929 42C31.6243 42 36.7543 41.9743 39.4029 39.4029C41.9743 36.7543 42 31.38 42 24.1929C34.0286 24.45 30.39 24.6429 27.4714 27.4714ZM23.8071 42C16.3757 42 11.2457 41.9743 8.59714 39.4029C6.02571 36.7543 6 31.38 6 24.1929C13.9714 24.45 17.61 24.6429 20.5286 27.4714C23.3571 30.39 23.55 34.0286 23.8071 42ZM20.5286 20.5286C17.61 23.3571 13.9714 23.55 6 23.8071C6 16.62 6.02571 11.2457 8.59714 8.59714C11.2457 6.02571 16.3886 6 23.8071 6C23.55 13.9714 23.3571 17.61 20.5286 20.5286ZM24.1929 6C24.4371 13.9714 24.6429 17.61 27.4714 20.5286C30.39 23.3571 34.0286 23.55 42 23.8071C42 16.62 41.9743 11.2457 39.4029 8.59714C36.7543 6.02571 31.6243 6 24.1929 6Z"/>
  </symbol>
  <symbol id="youtube" viewBox="0 0 48 48" xmlns="http://www.w3.org/2000/svg">
    <path fill="currentColor" d="M43.1761 14.3822C42.7148 12.6689 41.3639 11.318 39.6506 10.8567C36.5205 10 23.9999 10 23.9999 10C23.9999 10 11.4794 10 8.34924 10.8237C6.66885 11.285 5.285 12.6689 4.82372 14.3822C4 17.5123 4 24.0032 4 24.0032C4 24.0032 4 30.5271 4.82372 33.6243C5.285 35.3376 6.6359 36.6885 8.34924 37.1498C11.5123 38.0065 23.9999 38.0065 23.9999 38.0065C23.9999 38.0065 36.5205 38.0065 39.6506 37.1828C41.3639 36.7215 42.7148 35.3706 43.1761 33.6572C43.9998 30.5271 43.9998 24.0362 43.9998 24.0362C43.9998 24.0362 44.0328 17.5123 43.1761 14.3822ZM20.0131 29.9999V18.0066L30.4249 24.0032L20.0131 29.9999Z"/>
  </symbol>
  <symbol id="" viewBox="0 0 24 24" xmlns="http://www.w3.org/2000/svg">
  </symbol>
</svg>